<svg xmlns="http://www.w3.org/2000/svg" viewBox="0 0 32 32"><style>.f{fill:#1d1d1b}@media (prefers-color-scheme:dark){.f{fill:#e9e9e6}}</style><path class="f" d="M9.90 2.30A15 15 0 0 1 22.10 2.30L19.99 7.05A9.8 9.8 0 0 0 12.01 7.05ZM24.82 3.86A15 15 0 0 1 30.92 14.43L25.75 14.98A9.8 9.8 0 0 0 21.76 8.07ZM30.92 17.57A15 15 0 0 1 24.82 28.14L21.76 23.93A9.8 9.8 0 0 0 25.75 17.02ZM22.10 29.70A15 15 0 0 1 9.90 29.70L12.01 24.95A9.8 9.8 0 0 0 19.99 24.95ZM7.18 28.14A15 15 0 0 1 1.08 17.57L6.25 17.02A9.8 9.8 0 0 0 10.24 23.93ZM1.08 14.43A15 15 0 0 1 7.18 3.86L10.24 8.07A9.8 9.8 0 0 0 6.25 14.98Z"/></svg>